PathFileType	4	(X/Y/Z)	Run_200 02
DataRate	CameraRate	NumFrames	NumMarkers	Units	OrigDataRate	OrigDataStartFrame	OrigNumFrames
100	100	8	42	mm	100	419	128
Frame#	Time	RASI			LPSI			RPSI			RTH2			RTH3			LTH1			LTH2			LTH3			RTB1			RTB2			LTB1			LTB2			LTB3			RCAL			RMT5			LCAL			LTOE			LMT5			LACR			RACR			CLAV			C7			RUA1			RUA2			RUA3			RLEL			LUA1			LUA2			LUA3			LLEL			RFAsuperior			RFAradius			RFAulna			LFAsuperior			LFAradius			LFAulna			RTOE			RTH1			LMEL			RTB3			RMEL			LASI		
		X1	Y1	Z1	X2	Y2	Z2	X3	Y3	Z3	X4	Y4	Z4	X5	Y5	Z5	X6	Y6	Z6	X7	Y7	Z7	X8	Y8	Z8	X9	Y9	Z9	X10	Y10	Z10	X11	Y11	Z11	X12	Y12	Z12	X13	Y13	Z13	X14	Y14	Z14	X15	Y15	Z15	X16	Y16	Z16	X17	Y17	Z17	X18	Y18	Z18	X19	Y19	Z19	X20	Y20	Z20	X21	Y21	Z21	X22	Y22	Z22	X23	Y23	Z23	X24	Y24	Z24	X25	Y25	Z25	X26	Y26	Z26	X27	Y27	Z27	X28	Y28	Z28	X29	Y29	Z29	X30	Y30	Z30	X31	Y31	Z31	X32	Y32	Z32	X33	Y33	Z33	X34	Y34	Z34	X35	Y35	Z35	X36	Y36	Z36	X37	Y37	Z37	X38	Y38	Z38	X39	Y39	Z39	X40	Y40	Z40	X41	Y41	Z41	X42	Y42	Z42	

419	  4.190000	964.831768	1018.313576	-233.778931	805.072513	1072.476086	-421.434319	803.327403	1068.551848	-309.367015	870.766410	745.270087	-221.267881	946.397474	602.593136	-234.346454	929.661671	885.944203	-536.609330	901.370534	726.207524	-510.909574	991.960942	612.607801	-518.095909	980.989334	354.844752	-324.896136	892.669248	331.930216	-256.276778	982.390054	409.336602	-464.961406	842.929075	420.420266	-512.838832	787.948031	309.030520	-463.527544	713.419857	100.624029	-356.489162	906.970719	 48.874645	-288.393008	605.290231	334.621458	-428.393482	732.751924	135.684855	-452.830435	667.186140	160.416455	-541.158516	951.206873	1506.228577	-503.582395	985.952391	1463.822718	-182.500708	1031.902768	1442.558252	-318.611172	909.816949	1520.116156	-344.586685	880.433309	1362.510241	-118.734054	922.697039	1297.844297	-99.564260	857.620573	1217.213068	-60.596670	823.949674	1159.935485	-36.430029	847.776612	1412.096803	-561.775063	876.133030	1337.256417	-595.404496	802.593837	1276.379859	-621.436116	785.947672	1211.633619	-651.221403	902.272166	1081.469671	-35.439029	1037.965328	998.344299	-124.970601	1003.529460	961.367897	-78.021452	831.355931	1133.019975	-648.015092	971.366261	1046.934079	-547.542818	947.351753	999.369289	-593.505625	955.398697	 73.210323	-384.656440	893.624474	897.248221	-186.975534	764.244405	1188.730647	-565.744302	878.632835	194.158325	-349.127767	821.358776	1137.225850	-122.744366	961.592708	1015.116691	-481.136680	
420	  4.200000	963.798429	1019.719705	-234.226213	803.341548	1074.407613	-421.052335	802.162888	1070.128086	-309.369784	863.929216	746.707002	-220.964512	935.616541	602.202847	-234.634877	930.437609	888.272591	-536.787809	906.078591	728.472734	-511.239125	1000.163038	617.198951	-517.497414	964.612986	353.024998	-325.141115	876.258531	331.479524	-256.769560	995.937768	411.825664	-464.994474	856.377988	420.949145	-513.362087	804.456169	307.831307	-464.389194	693.512015	101.349839	-356.425854	886.836860	 48.906431	-288.521783	620.084349	327.048520	-430.643988	756.424684	133.701506	-455.554874	690.323188	156.411556	-543.808196	949.300439	1507.575600	-503.572193	986.906660	1465.622883	-182.747074	1031.465405	1444.107276	-319.005608	909.015526	1521.628975	-344.022844	884.708580	1361.892877	-117.378270	928.487432	1298.367097	-100.119316	866.772941	1215.414850	-60.660167	835.714086	1156.810863	-35.960610	843.420532	1415.361262	-560.179461	869.823012	1340.590645	-595.360678	794.544712	1281.403913	-620.060611	775.776112	1217.193497	-650.571721	917.492233	1081.700751	-37.912023	1054.531261	1005.928045	-132.515531	1023.660240	967.147992	-84.259140	818.660570	1136.867462	-648.755212	960.329901	1046.403257	-553.326605	932.035819	1000.215994	-598.976012	935.306912	 73.073047	-384.794530	890.622845	898.266222	-187.126574	755.654499	1194.316721	-564.740665	860.016044	193.852584	-349.853508	830.931623	1134.339578	-122.064782	960.467896	1016.731361	-481.780857	
421	  4.210000	963.165988	1021.994045	-234.679420	802.756609	1077.333590	-420.861100	801.390939	1072.601353	-309.291108	856.895698	749.111209	-220.673574	924.078436	602.745783	-235.114887	931.323905	891.930975	-537.249686	910.340743	731.962716	-511.341499	1007.457109	622.906153	-516.448221	947.303360	352.355691	-326.294577	858.777244	331.582780	-257.508173	1008.995543	416.149101	-464.685914	869.310187	421.559551	-513.384877	821.191264	306.480148	-464.719456	673.648234	102.292887	-356.372585	866.651897	 49.035400	-288.715042	635.302298	318.200099	-432.541372	781.308145	131.423877	-456.893994	714.595270	151.468865	-545.365897	947.141305	1510.351623	-503.562659	988.209631	1469.084046	-183.250200	1031.233265	1446.875886	-319.628113	908.280179	1524.083299	-343.787242	889.635540	1363.771349	-115.708222	933.962600	1300.948648	-100.685923	874.919449	1216.316975	-61.046834	846.314406	1156.497735	-36.232819	838.869985	1420.331092	-558.648130	863.197287	1345.700126	-595.455224	786.334182	1288.312358	-619.293598	765.380378	1224.730497	-649.859321	931.787544	1085.437151	-41.185205	1069.885753	1018.044682	-140.641270	1042.846846	977.176785	-91.642181	806.386361	1143.534335	-649.166690	950.040878	1051.212923	-558.178993	918.083126	1005.935572	-602.970467	915.247879	 72.998899	-384.842781	887.714231	900.053899	-187.389657	746.412477	1202.056673	-564.064431	841.520305	194.193745	-351.630478	840.521332	1134.434366	-122.310821	959.743703	1019.217597	-482.426529	
422	  4.220000	962.937613	1025.270647	-234.886780	803.238580	1081.053889	-420.762381	801.063783	1076.106798	-308.946777	849.765605	752.470168	-220.401636	911.887747	604.277625	-235.721611	932.169053	896.608804	-537.865436	914.188702	736.432772	-511.321349	1013.946050	629.494798	-515.229654	929.170466	352.835544	-327.492377	840.489384	332.626696	-258.400623	1021.477330	421.990192	-464.154668	881.745285	422.108735	-512.955363	838.087592	304.989316	-464.644730	653.985268	103.781564	-356.349760	846.443212	 49.210077	-288.983324	651.122844	308.256838	-433.875276	806.868676	129.051029	-456.857166	739.697866	145.812371	-545.912373	944.832634	1514.348486	-503.523189	989.822163	1473.900318	-184.028177	1031.213941	1450.761549	-320.517632	907.771521	1527.532049	-343.661668	894.468866	1367.444257	-114.646754	939.302226	1305.161618	-101.359856	882.395073	1219.406485	-61.696925	856.013291	1158.512627	-36.915958	834.342039	1426.741556	-557.131284	856.490216	1352.297363	-595.497020	778.138525	1296.826482	-618.767891	754.979485	1234.061175	-648.978062	945.139568	1092.092370	-45.090494	1083.699204	1033.627627	-149.037096	1060.631546	990.596358	-99.810256	794.896417	1152.709601	-649.183684	940.160581	1060.066093	-561.813366	905.622576	1014.908030	-605.026028	895.290488	 72.923444	-384.854291	884.980233	902.581965	-187.682068	736.719216	1211.613831	-563.227690	823.213811	195.276686	-353.557229	849.963205	1136.959448	-123.220415	959.436536	1022.701826	-482.817103	
423	  4.230000	963.100604	1029.525113	-234.781180	804.392064	1085.536452	-420.641546	801.150111	1080.590126	-308.321308	842.595390	756.787272	-220.247490	899.163661	606.836460	-236.483768	933.037276	902.149853	-538.472461	917.641449	741.682293	-511.171291	1019.802133	636.788118	-514.011798	910.612970	354.374360	-327.948027	821.827695	334.782066	-259.200834	1033.280040	428.549229	-463.271619	893.759302	422.421209	-512.139895	855.163547	303.345353	-464.206598	634.703889	106.243613	-356.227500	826.280641	 49.437055	-289.287210	667.720535	297.465713	-434.477323	832.828424	126.710019	-455.999821	765.419217	139.686382	-545.589141	942.504105	1519.346237	-503.451771	991.672511	1479.701679	-185.063506	1031.409147	1455.643028	-321.719703	907.571718	1531.885792	-343.496721	898.723472	1372.340385	-114.385330	944.592075	1310.586921	-102.210286	889.604763	1224.070980	-62.475668	865.095409	1162.322069	-37.601418	829.942938	1434.343589	-555.513390	849.875857	1360.110812	-595.391743	770.183525	1306.546699	-618.193337	744.780083	1244.765869	-647.865813	957.404306	1100.851660	-49.341285	1095.782912	1051.662609	-157.600403	1076.774112	1006.533312	-108.501407	784.219974	1163.773328	-648.847040	930.778502	1071.472240	-564.479212	894.822180	1025.831099	-605.907404	875.417612	 72.805436	-385.063509	882.799951	905.774900	-188.076764	726.939377	1222.539466	-561.921986	804.900064	197.213120	-354.350031	858.510440	1141.365955	-124.288262	959.534049	1027.154643	-482.897288	
424	  4.240000	963.704974	1034.540251	-234.523120	805.725507	1090.826777	-420.414442	801.668801	1085.820158	-307.567017	835.483792	762.085737	-220.239892	886.190364	610.455881	-237.403299	934.015879	908.442803	-538.982704	920.685623	747.555014	-510.821534	1025.059179	644.621151	-512.777446	892.159405	356.994198	-327.549187	803.247678	338.062269	-259.692824	1044.310930	435.245793	-461.831941	905.404152	422.380122	-510.987241	872.450336	301.535460	-463.325474	616.027165	110.092090	-355.821003	806.245657	 49.752796	-289.636587	685.166964	286.007058	-434.265811	859.294563	124.490283	-454.867166	791.742470	133.360174	-544.565579	940.282365	1525.154347	-503.372231	993.756031	1486.234835	-186.243984	1031.841034	1461.357624	-323.248315	907.659619	1536.931496	-343.308241	902.507638	1378.180188	-114.495884	949.792764	1316.870430	-103.234115	896.777924	1229.741363	-63.204251	873.719538	1167.365625	-38.074447	825.722561	1442.919584	-553.745755	843.478275	1368.877779	-595.127851	762.633683	1317.107373	-617.457381	734.938994	1256.348572	-646.451336	968.475149	1110.964865	-53.641010	1106.034098	1071.359631	-166.272084	1091.154577	1024.250593	-117.580674	774.217677	1176.045825	-648.212920	922.171381	1084.406735	-566.615124	885.667603	1038.158061	-606.787414	855.637817	 72.618460	-385.689799	881.374046	909.561582	-188.637370	717.622951	1234.323303	-560.186760	786.487215	200.155740	-353.544976	865.711956	1147.162541	-125.134971	960.057903	1032.367695	-482.847200	
425	  4.250000	964.825735	1040.067450	-234.322759	806.923274	1096.884499	-420.043784	802.689477	1091.555892	-306.866280	828.618989	768.327073	-220.281134	873.416276	615.154754	-238.299968	935.060048	915.284452	-539.400323	923.323141	753.928781	-510.281604	1029.548835	652.776010	-511.402450	874.218509	360.802803	-326.731750	785.125839	342.472247	-259.792928	1054.516919	441.978375	-459.863841	916.678393	421.944746	-509.545402	889.923639	299.575192	-461.899636	598.188853	115.612772	-355.046226	786.369536	 50.147401	-290.135017	703.472944	273.936506	-433.257968	886.457892	122.501760	-453.459791	818.746031	127.078420	-542.930336	938.286675	1531.555147	-503.356951	996.141818	1493.423889	-187.374472	1032.548446	1467.710939	-325.041345	907.992224	1542.472097	-343.187338	906.238634	1384.786390	-114.510784	954.829766	1323.725028	-104.368048	903.849404	1236.027160	-63.745264	881.884689	1173.176199	-38.373927	821.784493	1452.234388	-551.920669	837.421908	1378.294581	-594.709440	755.539822	1328.210360	-616.541153	725.554575	1268.424912	-644.649467	978.370451	1121.926855	-57.808365	1114.420442	1092.110094	-174.891328	1103.698434	1043.169327	-126.916672	764.813818	1188.987906	-647.293723	914.498319	1098.344149	-568.501678	877.936205	1051.680948	-608.236888	836.064537	 72.333474	-386.655940	880.482282	913.909114	-189.302330	709.207355	1246.499497	-558.201719	768.254680	204.211434	-351.915097	871.759958	1153.884358	-125.685649	961.054907	1038.110923	-482.869791	
426	  4.260000	966.440924	1045.967228	-234.245179	807.952878	1103.517135	-419.531693	804.202271	1097.667839	-306.275419	822.251002	775.317076	-220.257287	861.265629	620.874937	-238.873991	935.993975	922.409483	-539.773471	925.572508	760.696902	-509.634452	1033.004334	660.985664	-509.774329	857.016338	365.808814	-325.938272	767.723474	348.000617	-259.507741	1063.861236	448.838701	-457.643974	927.548383	421.114684	-507.880389	907.501226	297.516303	-459.919902	581.367555	122.893550	-353.959042	766.642537	 50.582044	-290.780708	722.655186	261.283264	-431.544564	914.311484	120.917601	-451.392129	846.446817	120.981056	-540.575523	936.636151	1538.280661	-503.494041	998.844205	1501.174073	-188.337009	1033.547087	1474.497045	-326.958573	908.555519	1548.388206	-343.190244	910.194553	1391.922843	-114.295470	959.671709	1330.929118	-105.511959	910.563675	1242.747572	-64.051631	889.497500	1179.488822	-38.613038	818.294236	1462.044264	-550.202458	831.851671	1388.035734	-594.117625	748.900861	1339.583749	-615.399781	716.715142	1280.774260	-642.407605	987.161963	1133.427379	-61.819722	1120.985442	1113.392817	-183.225295	1114.372368	1062.837448	-136.236551	756.075871	1202.234722	-646.069823	907.758006	1112.929958	-570.206549	871.344788	1066.016684	-609.998138	816.833849	 71.927916	-387.551592	879.745613	918.792864	-189.941712	701.751165	1258.774392	-556.000459	750.722551	209.331323	-350.568373	877.079442	1161.122762	-126.025115	962.537143	1044.244721	-482.981476	
